<?xml version="1.0" encoding="utf-8"?>
<svg version="1.1" id="Layer_1"  x="0px" y="0px"
	 xmlns:xlink="http://www.w3.org/1999/xlink"
	 viewBox="0 0 200 200" style="enable-background:new 0 0 200 200;">
<g  transform="translate(-166.502 -355.669)">
	<path id="Path_4" d="M294.5,450.17c0-12.43-10.07-22.5-22.5-22.5c-12.43,0-22.5,10.07-22.5,22.5s10.07,22.5,22.5,22.5
		C284.43,472.67,294.5,462.6,294.5,450.17L294.5,450.17 M291.45,450.17c0,10.74-8.71,19.44-19.45,19.44
		c-10.74,0-19.44-8.71-19.44-19.45s8.71-19.44,19.45-19.44c5.16,0,10.1,2.05,13.75,5.7C289.4,440.06,291.45,445.01,291.45,450.17
		 M287.4,450.17c0-8.51-6.89-15.4-15.4-15.4s-15.4,6.89-15.4,15.4s6.89,15.4,15.4,15.4h0C280.5,465.57,287.4,458.67,287.4,450.17
		 M272.55,461.49c-3.33,1.25-7.06,0.78-9.96-1.28c-0.11-0.1-0.22-0.2-0.33-0.31l-0.01-0.01c-3.28-2.37-4.85-6.46-4-10.42
		c0-0.1,0.01-0.21,0.02-0.31c1.25-5.8,6.97-9.48,12.77-8.23s9.48,6.97,8.23,12.77C278.5,457.27,275.97,460.21,272.55,461.49"/>
</g>
</svg>
