<?xml version="1.0" encoding="utf-8"?>
<!-- Generator: Adobe Illustrator 23.0.3, SVG Export Plug-In . SVG Version: 6.00 Build 0)  -->
<svg version="1.1" id="Layer_1" xmlns="http://www.w3.org/2000/svg" xmlns:xlink="http://www.w3.org/1999/xlink" x="0px" y="0px"
	 viewBox="0 0 200 200" style="enable-background:new 0 0 200 200;" xml:space="preserve">
<g id="Group_1" transform="translate(-257.296 -206.117)">
	<path id="Path_1" d="M366.56,292.92c-5.04,0-9.13,4.09-9.13,9.13s4.09,9.13,9.13,9.13c5.04,0,9.13-4.09,9.13-9.13
		C375.69,297.01,371.61,292.92,366.56,292.92C366.57,292.92,366.56,292.92,366.56,292.92z M371.32,296.48c0.72,0,1.3,0.58,1.3,1.3
		c0,0.72-0.58,1.3-1.3,1.3c-0.72,0-1.3-0.58-1.3-1.3c0,0,0,0,0,0C370.02,297.07,370.6,296.49,371.32,296.48L371.32,296.48z
		 M361.08,305.77c-0.72,0-1.3-0.58-1.3-1.3c0-0.72,0.58-1.3,1.3-1.3c0.72,0,1.3,0.58,1.3,1.3c0,0,0,0,0,0
		C362.38,305.19,361.79,305.77,361.08,305.77z M361.33,300.05c-0.72,0-1.3-0.58-1.3-1.3c0-0.72,0.58-1.3,1.3-1.3
		c0.72,0,1.3,0.58,1.3,1.3c0,0,0,0,0,0C362.63,299.46,362.05,300.05,361.33,300.05C361.33,300.05,361.33,300.05,361.33,300.05
		L361.33,300.05z M364.96,309.59c-0.72,0-1.3-0.58-1.3-1.3c0-0.72,0.58-1.3,1.3-1.3c0.72,0,1.3,0.58,1.3,1.3c0,0,0,0,0,0
		C366.26,309.01,365.67,309.59,364.96,309.59C364.96,309.59,364.95,309.59,364.96,309.59L364.96,309.59z M366.61,296.86
		c-0.72,0-1.3-0.58-1.3-1.3c0-0.72,0.58-1.3,1.3-1.3c0.72,0,1.3,0.58,1.3,1.3c0,0,0,0,0,0
		C367.91,296.28,367.33,296.86,366.61,296.86C366.61,296.86,366.61,296.86,366.61,296.86L366.61,296.86z M370.52,308.6
		c-0.72,0-1.3-0.58-1.3-1.3c0-0.72,0.58-1.3,1.3-1.3c0.72,0,1.3,0.58,1.3,1.3c0,0,0,0,0,0C371.82,308.02,371.24,308.6,370.52,308.6
		C370.52,308.6,370.52,308.6,370.52,308.6L370.52,308.6z M373.22,304.12c-0.72,0-1.3-0.58-1.3-1.3c0-0.72,0.58-1.3,1.3-1.3
		c0.72,0,1.3,0.58,1.3,1.3c0,0,0,0,0,0C374.52,303.54,373.94,304.12,373.22,304.12L373.22,304.12z"/>
	<path id="Path_2" d="M363.9,282.12c-12.48,0-22.6,10.12-22.6,22.6c0,12.48,10.12,22.6,22.6,22.6s22.6-10.12,22.6-22.6
		S376.38,282.12,363.9,282.12L363.9,282.12z M377.71,318.53c-7.63,7.63-20,7.63-27.62,0c-7.63-7.63-7.63-20,0-27.62s20-7.63,27.62,0
		c3.66,3.66,5.72,8.63,5.72,13.81C383.44,309.9,381.38,314.87,377.71,318.53L377.71,318.53z"/>
	<path id="Path_3" d="M365.23,287.67c-8.68,0-15.71,7.03-15.71,15.71s7.03,15.71,15.71,15.71c8.68,0,15.71-7.03,15.71-15.71
		c0,0,0,0,0,0C380.94,294.71,373.91,287.67,365.23,287.67z M365.23,315.87c-6.9,0-12.49-5.59-12.49-12.49
		c0-6.9,5.59-12.49,12.49-12.49c6.9,0,12.49,5.59,12.49,12.49c0,3.31-1.32,6.49-3.66,8.83
		C371.72,314.56,368.54,315.88,365.23,315.87L365.23,315.87z"/>
</g>
</svg>
