<?xml version="1.0" encoding="utf-8"?>
<!-- Generator: Adobe Illustrator 23.0.3, SVG Export Plug-In . SVG Version: 6.00 Build 0)  -->
<svg version="1.1" id="Layer_1" xmlns="http://www.w3.org/2000/svg" xmlns:xlink="http://www.w3.org/1999/xlink" x="0px" y="0px"
	 viewBox="0 0 200 200" style="enable-background:new 0 0 200 200;" xml:space="preserve">
<style type="text/css">
	.st0{fill:#58585A;}
</style>
<path id="Path_5" class="st0" d="M122,94.5C122,82.07,111.93,72,99.5,72S77,82.07,77,94.5S87.07,117,99.5,117S122,106.93,122,94.5
	L122,94.5 M118.95,94.5c0,10.74-8.71,19.44-19.44,19.44c-10.74,0-19.44-8.71-19.44-19.44s8.71-19.44,19.44-19.44
	c5.16,0,10.1,2.05,13.75,5.69C116.9,84.39,118.95,89.34,118.95,94.5 M114.95,94.54c0-8.51-6.9-15.42-15.42-15.41
	c-8.51,0-15.41,6.9-15.41,15.42c0,8.51,6.9,15.41,15.42,15.41l0,0C108.04,109.96,114.94,103.06,114.95,94.54 M89.32,104.39
	c3.06,1.67,6.49,2.55,9.98,2.58h0.01c3.85-0.03,7.61-1.09,10.9-3.09c-0.21,0.24-0.42,0.47-0.64,0.69c-5.54,5.54-14.53,5.54-20.07,0
	c0,0,0,0,0,0C89.43,104.52,89.37,104.45,89.32,104.39 M97.29,80.53c-3.64,1.83-6.47,4.94-7.95,8.74c-1.31,3.37-1.96,6.96-1.92,10.58
	c0,0.91,0.04,1.67,0.08,2.23c-4.16-6.64-2.16-15.4,4.48-19.56C93.6,81.5,95.41,80.83,97.29,80.53 M98.4,81.35
	c-0.18,0.26-0.37,0.51-0.58,0.75c-1.87,2-3.03,4.79-4.45,7.1c-1.27,2.07-3.07,4.32-3.61,6.72c-0.31,1.39-0.67,2.65-1.08,4.02
	c-0.01,0.04-0.02,0.08-0.03,0.13c0-0.08,0-0.15,0-0.23c-0.04-3.46,0.58-6.89,1.83-10.12C91.91,86,94.75,82.99,98.4,81.35
	 M100.86,103.68c2.53-0.13,5.53,0.4,7.96-0.42c0.03-0.01,0.05-0.02,0.07-0.03c-2.94,1.63-6.24,2.49-9.59,2.52
	c-3.07-0.02-6.1-0.75-8.84-2.14c0.99,0.17,2,0.24,3,0.22C95.93,103.85,98.4,103.8,100.86,103.68 M100.41,81.34
	c2.24,0.9,4.18,2.42,5.58,4.39c2.14,2.88,4.05,7.48,4.36,14.8c-0.35-0.97-0.8-1.9-1.34-2.78c-1.08-2.06-1.97-4.22-2.68-6.44
	c-0.86-2.36-2.26-3.74-3.27-5.2c-0.82-1.18-0.99-3.07-2.04-4.06C100.79,81.84,100.59,81.6,100.41,81.34 M113.73,94.54
	c0,2.63-0.73,5.21-2.11,7.45c-0.11-9.61-2.83-15.17-5.74-18.32c-1.19-1.31-2.63-2.38-4.23-3.15l-0.08-0.03
	C108.55,81.5,113.73,87.48,113.73,94.54"/>
</svg>
