<?xml version="1.0" encoding="utf-8"?>
<!-- Generator: Adobe Illustrator 23.0.3, SVG Export Plug-In . SVG Version: 6.00 Build 0)  -->
<svg version="1.1" id="Layer_1" xmlns="http://www.w3.org/2000/svg" xmlns:xlink="http://www.w3.org/1999/xlink" x="0px" y="0px"
	 viewBox="0 0 200 200" style="enable-background:new 0 0 200 200;" xml:space="preserve">
<g id="Group_11" transform="translate(-451.436 -206.157)">
	<path id="Path_7" d="M553.21,291.77c0.26-0.21,0.26-0.45-0.02-0.72c-0.12-0.03-0.25-0.05-0.38-0.05c-0.22,0-0.44,0.01-0.66,0.05
		c-0.09,0.02-1.56,0.48-1.4,0.63c0.08,0.07,0.1,0.19,0.05,0.29C551.58,292.33,552.49,292.26,553.21,291.77z"/>
	<path id="Path_8" d="M568.04,310.14c-0.59,0.24-1.18,0.48-1.78,0.68c-1.39,0.48-2.81,0.87-4.24,1.17c-1.52,0.32-3.05,0.53-4.6,0.63
		c-1.47,0.1-2.91-0.03-4.38-0.02c-0.01,0-0.02,0-0.03,0c-0.6,0.65-1.1,1.4-1.48,2.21c-0.73,1.67-1.17,3.44-1.31,5.26
		c0.03,0.47,0.11,0.94,0.24,1.39l0.01,0.02c0.2,0.31,0.36,0.64,0.49,0.98c0.09,0.25,0.16,0.5,0.2,0.76c0.02,0.05,0.03,0.1,0.05,0.15
		c8.6-0.46,16.11-5.99,19.11-14.07c-0.16,0.08-0.32,0.14-0.47,0.21C569.26,309.75,568.65,309.95,568.04,310.14z"/>
	<path id="Path_9" d="M540.8,292.59c0.05,0.01,0.09,0.03,0.12,0.05c0.4-0.08,0.78-0.24,1.12-0.45c0.16-0.12,0.3-0.26,0.43-0.42
		c0.18-0.23,0.3-0.39,0.24-0.62c-0.32-0.15-0.68-0.17-1.02-0.06c-0.1,0.05-0.2,0.11-0.29,0.17c-0.09,0.06-0.19,0.12-0.29,0.19
		c-0.24,0.29-0.39,0.64-0.41,1.02c0.03,0.02,0.06,0.06,0.07,0.1c0,0.01,0.01,0.01,0.01,0.01L540.8,292.59z"/>
	<path id="Path_10" d="M538.75,318.45c-0.63-0.86-1.22-1.75-1.82-2.64c-0.11-0.09-0.25-0.14-0.4-0.15c-0.31,0-0.6,0.34-0.81,0.54
		c-0.3,0.3-0.61,0.6-0.92,0.89c1.83,1.82,3.98,3.31,6.33,4.38c-0.03-0.05-0.07-0.09-0.1-0.14
		C540.27,320.36,539.48,319.43,538.75,318.45z"/>
	<path id="Path_11" d="M532.69,296.76c-0.17,0.04-0.32,0.13-0.45,0.25c-0.1,0.38-0.13,0.78-0.1,1.18c0.01,0.36,0.08,0.72,0.21,1.06
		c0.18,0.31,0.59,0.42,0.9,0.23c0,0,0.01,0,0.01-0.01c0.14-0.18,0.31-0.34,0.5-0.46c0.02-0.18,0.02-0.36,0-0.54
		C533.71,297.8,533.69,296.51,532.69,296.76z"/>
	<path id="Path_12" d="M534.3,298.52c0.01,0.07,0.01,0.13,0.01,0.2c0.31-0.13,0.64-0.23,0.96-0.31c0.83-0.21,1.7-0.23,2.54-0.06
		c0.85,0.16,1.64,0.53,2.32,1.07c0.56,0.41,0.97,0.98,1.18,1.63c0.59-0.15,1.2-0.24,1.82-0.26c0.13,0,0.25,0.05,0.33,0.14
		c0.52,0.12,1,0.39,1.35,0.79c0.52,0.6,0.83,1.36,0.87,2.16c0.2,1.64-0.11,3.3-0.89,4.76c-0.27,0.46-0.72,0.79-1.24,0.91
		c-0.57,0.58-1.23,1.04-1.75,1.69c-0.03,0.04-0.06,0.08-0.09,0.12c-0.18,0.53-0.4,1.04-0.67,1.52c-0.25,0.61-0.48,1.23-0.69,1.86
		c-0.21,0.63-0.39,1.26-0.54,1.9c-0.1,0.43-0.14,0.94-0.27,1.38c0.17,0.24,0.33,0.49,0.48,0.73c0.2,0.3,0.37,0.61,0.54,0.92
		c0.5,0.65,1,1.3,1.47,1.97c0.06,0.09,0.11,0.18,0.17,0.28c2.08,0.81,4.28,1.3,6.52,1.43c0.03-0.39,0.05-0.78,0.09-1.17
		c0.15-1.87,0.44-3.72,0.85-5.54c0.33-1.69,1.07-3.27,2.16-4.6c0.55-0.63,1.21-1.16,1.94-1.57c2.42-1.58,5.58-1.41,7.81,0.44
		c1.14-0.22,2.28-0.47,3.4-0.75c0.93-0.23,1.87-0.43,2.8-0.67c0.54-0.13,1.08-0.3,1.6-0.5c-0.12-0.07-0.17-0.21-0.14-0.34
		c0-0.02,0.01-0.03,0.02-0.04c-0.46-0.59-0.9-1.19-1.39-1.76c-1.15-1.14-2.39-2.18-3.7-3.12c-1.26-0.74-2.62-1.29-4.04-1.63
		c-0.28-0.06-0.56-0.11-0.84-0.15c-0.42,0.02-0.84-0.06-1.23-0.22c-0.02-0.01-0.04-0.03-0.04-0.06l0,0
		c-0.09-0.04-0.15-0.13-0.15-0.23v-0.02c-0.04-0.06-0.05-0.13-0.02-0.2l0.02-0.04c0.03-0.89,0.23-1.76,0.58-2.58
		c0.27-0.84,0.65-1.64,1.12-2.39c0.43-0.66,0.97-1.23,1.6-1.7c0.37-0.31,0.79-0.57,1.23-0.76c-0.34-0.45-0.43-1.03-0.25-1.56
		c0-0.02,0-0.03,0-0.05c-0.01,0.16-0.64,0.27-0.76,0.31c-0.36,0.13-0.74,0.65-1.18,0.6c-0.19-0.02-0.19-0.19-0.15-0.4
		c0.16-0.82,0.26-1.68,0.47-2.48c-0.63,0.17-0.69,0.23-0.8,0.77c-0.09,0.39-0.25,1.16-0.37,1.54c-0.05,0.17-0.06,0.66-0.09,0.83
		c-0.02,0.11,0.1,0.44-0.05,0.58c-0.07,0.07-0.17,0.11-0.24,0.19c-0.18,0.21-0.43,0.47-0.65,0.1c-0.09-0.15-0.19-0.3-0.27-0.46
		c-0.04-0.07-0.08-0.15-0.12-0.22c-0.02-0.04-0.04-0.08-0.07-0.13c-0.01-0.02-0.02-0.05-0.03-0.07c-0.08,0.05-0.17,0.1-0.24,0.16
		c-0.06,0.05-0.12,0.11-0.17,0.17l-0.02,0.02c0.01,0.01,0.02,0.03,0.02,0.05l0.14,0.36c0.17,0.46,0.39,0.77,0.14,1.27
		c-0.2,0.39-0.54,0.67-0.77,1.04c-0.27,0.44-0.5,0.91-0.69,1.39c-0.2,0.52-0.34,1.05-0.42,1.6c-0.04,0.31-0.02,0.66-0.08,0.99
		c0.01,0.13,0.03,0.27,0.04,0.4c0.01,0.18-0.15,0.24-0.3,0.21c-0.06,0.07-0.15,0.07-0.22,0.02c-0.01-0.01-0.03-0.03-0.03-0.04
		c-0.31-0.7-0.52-1.43-0.61-2.19c-0.14-0.81-0.29-1.62-0.43-2.43c-0.22-1.33-0.44-2.66-0.65-3.99c-0.63,0.38-1.37,0.53-2.09,0.42
		c-0.27-0.04-0.53-0.13-0.76-0.27c0.04,0.31,0.04,0.64,0.07,0.94c0.05,0.43,0.1,0.86,0.16,1.28c0.12,0.85,0.26,1.7,0.38,2.56
		c0.05,0.38,0.1,0.77,0.14,1.15c0.08,0.57,0.16,1.14,0.24,1.71c0.07,0.49,0.14,0.98,0.19,1.47c0.04,0.22,0.04,0.46,0,0.68
		c0.05,0.19-0.05,0.42-0.36,0.41c-0.64,0.04-1.24,0.28-1.73,0.68c-0.1,0.08-0.25,0.06-0.33-0.04c-0.01-0.02-0.03-0.04-0.03-0.06
		c-0.07-0.01-0.13-0.04-0.17-0.09c-1.52-1.57-2.22-3.66-3.02-5.65c-0.86-2.04-1.87-4.02-3.03-5.91c-0.16,0.34-0.38,0.64-0.67,0.89
		c-0.52,0.38-1.14,0.59-1.78,0.59l0.01,0.02l0.03,0.04c0.93,1.24,1.62,2.64,2.03,4.13c0.07,0.07,0.1,0.17,0.07,0.26
		c0.02,0.09,0.05,0.17,0.07,0.26c0.01,0.03,0.01,0.07,0,0.1c0.02,0.1,0.03,0.21,0.03,0.31c0.01,0.28-0.37,0.23-0.48,0.07
		c-0.05-0.08-0.1-0.17-0.14-0.25c-0.17-0.16-0.34-0.33-0.53-0.49c-0.19-0.17-0.39-0.31-0.61-0.43c-0.84-0.37-1.7-0.68-2.58-0.95
		c-0.31-0.07-0.62-0.13-0.93-0.18c-0.95-0.12-1.9-0.15-2.85-0.08c-0.53,0.07-1.05,0.22-1.53,0.45c0.18,0.06,0.35,0.17,0.48,0.32
		C534.17,297.21,534.34,297.86,534.3,298.52z"/>
	<path id="Path_13" d="M531.79,310.33c-0.28,0.56-0.53,1.14-0.76,1.72c0.82,1.52,1.83,2.94,2.99,4.22c0.79-0.74,1.63-1.94,2.85-1.54
		c0.74,0.32,1.35,0.9,1.7,1.63c0.04-0.31,0.1-0.61,0.16-0.89c0.21-0.9,0.54-1.76,0.99-2.56c0.42-0.81,0.94-1.56,1.54-2.25
		c0.39-0.46,0.82-0.88,1.29-1.26c-0.57-0.58-1.01-1.27-1.32-2.02c-0.29-0.78-0.43-1.61-0.43-2.44c-0.03-1.07,0.2-2.14,0.67-3.1
		c-1.16,0.28-2.27,0.72-3.31,1.31C535.39,304.87,533.17,307.37,531.79,310.33z"/>
	<path id="Path_14" d="M534.47,304.98c1.2-1.13,2.54-2.08,4-2.84c0.69-0.35,1.41-0.65,2.14-0.89c-0.12-0.19-0.26-0.37-0.4-0.55
		c-1.16-1.33-2.96-1.92-4.68-1.52c-0.69,0.19-1.35,0.49-1.95,0.88c-0.54,0.34-1.25,0.18-1.59-0.36c-0.05-0.08-0.09-0.17-0.12-0.25
		c-0.04-0.04-0.07-0.09-0.1-0.13c-0.58-0.84-0.5-1.96,0.18-2.71c0.13-0.24,0.32-0.45,0.56-0.59c0-0.01,0.01-0.02,0.01-0.02
		c0.72-0.42,1.54-0.67,2.38-0.71c1.05-0.09,2.11-0.05,3.16,0.11c1.04,0.11,2.05,0.44,2.96,0.96c0.03,0.02,0.06,0.04,0.09,0.06
		c0.26,0.09,0.52,0.21,0.76,0.35l-0.01-0.02c-0.17-0.43-0.34-0.85-0.53-1.27c-0.09-0.2-0.18-0.39-0.28-0.58
		c-0.12-0.23-0.25-0.47-0.37-0.7c-0.3-0.49-0.55-1.01-0.72-1.56c-0.01-0.01-0.02-0.03-0.02-0.04c-0.08-0.17-0.1-0.37-0.05-0.55
		c0-0.03,0-0.07,0-0.1c0.13-0.7,0.65-1.26,1.34-1.43c0.73-0.28,1.59-0.53,2.19,0.13c0.65,0.84,1.2,1.74,1.65,2.7
		c0.56,1,1.11,2.01,1.64,3.02c0.96,1.85,1.86,3.73,2.69,5.64c0.46-0.2,0.95-0.34,1.45-0.41c-0.02-0.25-0.01-0.5-0.01-0.76
		c-0.02-0.23-0.03-0.46-0.06-0.68c-0.06-0.55-0.12-1.09-0.17-1.64c-0.06-0.72-0.12-1.44-0.17-2.15c-0.11-0.7-0.23-1.4-0.32-2.1
		c-0.14-0.66-0.2-1.34-0.18-2.02c-0.02-0.17,0-0.35,0.05-0.52c0.01-0.03,0.03-0.06,0.05-0.08c0.03-0.21,0.15-0.4,0.33-0.51
		c0.39-0.36,0.87-0.61,1.38-0.73c0.51-0.19,1.08-0.15,1.57,0.1c0.46,0.07,0.78,0.48,0.73,0.95c0.02,0.05,0.04,0.11,0.06,0.16
		c0.16,0.49,0.28,0.99,0.38,1.5c0.21,0.84,0.39,1.69,0.54,2.54c0.13,0.75,0.26,1.51,0.38,2.27c0.14-0.36,0.3-0.7,0.49-1.03
		c0.17-0.31,0.35-0.61,0.55-0.89c0.18-0.32,0.39-0.61,0.64-0.88l0.19-0.25c-0.25-0.4-0.44-0.83-0.59-1.28
		c-0.1-0.46,0.7-0.82,0.99-1.03c0.11-0.07,0.26-0.05,0.34,0.07c0,0.01,0.01,0.01,0.01,0.02c0.15,0.23,0.3,0.46,0.45,0.68
		c0-0.71,0.13-1.41,0.39-2.07c0.13-0.5,0.35-0.96,0.67-1.37c0.15-0.09,0.31-0.15,0.48-0.18c0.27-0.09,0.53-0.2,0.79-0.3
		c0.11-0.05,0.25,0.01,0.29,0.12c0.01,0.02,0.01,0.05,0.02,0.08c0.02,0.73,0,1.46-0.07,2.19c0.18-0.08,0.36-0.15,0.55-0.2
		c0.4-0.14,0.83-0.14,1.24-0.01c0.04-0.01,0.09-0.01,0.13-0.02c0.1-0.01,0.2,0.04,0.24,0.12c0.03,0.07,0.06,0.15,0.09,0.22
		c0.22,0.3,0.31,0.68,0.24,1.05c0.01,0.3-0.1,0.59-0.29,0.82c-0.65,0.6-1.34,1.16-2.05,1.68c-0.76,0.81-1.34,1.77-1.7,2.82
		c-0.27,0.63-0.52,1.27-0.76,1.91c-0.06,0.22-0.13,0.43-0.21,0.64c1.22,0.12,2.42,0.43,3.54,0.93c2.25,0.9,4.3,2.24,6.01,3.95
		c0.58,0.59,1.11,1.21,1.61,1.86l0.08,0.07c0.04,0.04,0.07,0.09,0.09,0.15c0.17,0.22,0.34,0.45,0.51,0.67l0.01-0.01
		c0.11-0.08,0.21-0.17,0.32-0.25c3.54-11.4-2.84-23.52-14.24-27.06c-11.4-3.54-23.52,2.84-27.06,14.24
		c-1.57,5.07-1.23,10.54,0.98,15.37C531.33,308.56,532.73,306.6,534.47,304.98z"/>
	<path id="Path_15" d="M562.77,293.4c0.09,0.07,0.14,0.04,0.16-0.07c0.11-0.24,0.16-0.5,0.13-0.76c-0.01-0.19-0.03-0.38-0.26-0.38
		c-0.16,0-0.19,0.07-0.24,0.23c-0.01,0.02-0.02,0.04-0.04,0.06c-0.02,0.13-0.02,0.27,0,0.4c0.01,0.14,0.05,0.27,0.11,0.39
		C562.63,293.34,562.69,293.4,562.77,293.4z"/>
	<path id="Path_16" d="M544.81,306.91c0.18-0.75,0.27-1.51,0.27-2.28c0.05-0.71-0.09-1.42-0.4-2.05c-0.27-0.5-0.75-0.86-1.31-0.98
		c-0.77-0.01-1.23,0.86-1.4,1.48c-0.19,0.71-0.28,1.45-0.27,2.19c0.01,0.76,0.18,1.52,0.49,2.22c0.26,0.58,0.76,1.73,1.55,1.32
		C544.37,308.47,544.65,307.54,544.81,306.91z"/>
	<path id="Path_17" d="M559.46,311.84l0.35-0.05l0.1-0.02l-0.49,0.03C559.43,311.81,559.44,311.83,559.46,311.84z"/>
	<path id="Path_18" d="M555.32,310.97c-0.33,0.14-0.66,0.31-0.96,0.51c0.15,0.01,0.31,0.04,0.46,0.04c0.57,0.03,1.13,0.03,1.7,0.02
		c0.95-0.04,1.89-0.12,2.83-0.26c0.18-0.03,0.36-0.05,0.54-0.08l0.15-0.04C558.57,310.37,556.83,310.3,555.32,310.97z"/>
</g>
</svg>
